<!--?xml version="1.0" standalone="no"?-->
              <svg id="sw-js-blob-svg" viewBox="0 0 100 100" xmlns="http://www.w3.org/2000/svg" version="1.1">
                    <defs> 
                        <linearGradient id="sw-gradient" x1="0" x2="1" y1="1" y2="0">
                            <stop id="stop1" stop-color="rgba(248, 117, 55, 1)" offset="0%"></stop>
                            <stop id="stop2" stop-color="rgba(251, 168, 31, 1)" offset="100%"></stop>
                        </linearGradient>
                    </defs>
                <path fill="url(#sw-gradient)" d="M21,-26.5C27.3,-19.7,32.7,-13.2,33.6,-6.2C34.6,0.9,31.1,8.4,26.9,15.3C22.6,22.1,17.6,28.2,10.1,33.3C2.7,38.4,-7.1,42.5,-13.5,39.2C-19.8,36,-22.7,25.4,-25.1,16.7C-27.6,8,-29.6,1.2,-29.8,-6.6C-30.1,-14.4,-28.5,-23.3,-23.2,-30.2C-18,-37.2,-9,-42.2,-0.8,-41.2C7.3,-40.2,14.7,-33.2,21,-26.5Z" width="100%" height="100%" transform="translate(50 50)" stroke-width="0" style="transition: 0.3s;"></path>
              </svg>