<!--?xml version="1.0" standalone="no"?-->
              <svg id="sw-js-blob-svg" viewBox="0 0 100 100" xmlns="http://www.w3.org/2000/svg" version="1.1">
                    <defs> 
                        <linearGradient id="sw-gradient" x1="0" x2="1" y1="1" y2="0">
                            <stop id="stop1" stop-color="rgba(248, 117, 55, 1)" offset="0%"></stop>
                            <stop id="stop2" stop-color="rgba(251, 168, 31, 1)" offset="100%"></stop>
                        </linearGradient>
                    </defs>
                <path fill="url(#sw-gradient)" d="M20.4,-24.8C26.6,-19.1,32,-12.8,32.7,-6.2C33.4,0.5,29.4,7.6,25.7,15.6C22,23.7,18.6,32.6,12.5,35.2C6.4,37.8,-2.3,34,-9.5,29.8C-16.8,25.6,-22.5,20.9,-27.1,14.8C-31.7,8.6,-35.1,0.9,-33.8,-5.8C-32.4,-12.6,-26.3,-18.4,-19.9,-24C-13.5,-29.7,-6.8,-35.2,0.2,-35.4C7.1,-35.6,14.2,-30.5,20.4,-24.8Z" width="100%" height="100%" transform="translate(50 50)" stroke-width="0" style="transition: 0.3s;"></path>
              </svg>