<!--?xml version="1.0" standalone="no"?-->
              <svg id="sw-js-blob-svg" viewBox="0 0 100 100" xmlns="http://www.w3.org/2000/svg" version="1.1">
                    <defs> 
                        <linearGradient id="sw-gradient" x1="0" x2="1" y1="1" y2="0">
                            <stop id="stop1" stop-color="rgba(248, 117, 55, 1)" offset="0%"></stop>
                            <stop id="stop2" stop-color="rgba(251, 168, 31, 1)" offset="100%"></stop>
                        </linearGradient>
                    </defs>
                <path fill="url(#sw-gradient)" d="M26.7,-33.3C32.8,-26.8,34.6,-16.6,36.5,-6.4C38.4,3.8,40.3,14.1,36.4,21.3C32.6,28.5,23,32.6,13.2,36.2C3.3,39.8,-6.7,42.8,-15.6,40.6C-24.5,38.3,-32.4,30.8,-34.4,22.3C-36.5,13.8,-32.8,4.3,-30.7,-5C-28.5,-14.3,-28,-23.5,-23.1,-30.2C-18.3,-36.9,-9.1,-41.1,0.6,-41.8C10.3,-42.5,20.7,-39.8,26.7,-33.3Z" width="100%" height="100%" transform="translate(50 50)" stroke-width="0" style="transition: 0.3s;"></path>
              </svg>